HIERARCHY
ROOT Hips
{
	OFFSET 49.866600 -7.994054 86.598801
	CHANNELS 6 Xposition Yposition Zposition Xrotation Yrotation Zrotation
	JOINT spine
	{
		OFFSET 0.000000 -0.393701 6.846367
		CHANNELS 3 Xrotation Yrotation Zrotation
		JOINT spine1
		{
			OFFSET 0.000000 -0.000002 9.496208
			CHANNELS 3 Xrotation Yrotation Zrotation
			JOINT spine2
			{
				OFFSET 0.000000 -0.000001 9.099091
				CHANNELS 3 Xrotation Yrotation Zrotation
				JOINT Neck
				{
					OFFSET 0.000000 -1.113784 23.361206
					CHANNELS 3 Xrotation Yrotation Zrotation
					JOINT Head
					{
						OFFSET 0.000000 -0.000001 7.058014
						CHANNELS 3 Xrotation Yrotation Zrotation
						End Site
						{
							OFFSET 0.000000 5.634187 17.084396
						}
					}
				}
				JOINT RightShoulder
				{
					OFFSET -3.831360 0.533489 9.826309
					CHANNELS 3 Xrotation Yrotation Zrotation
					JOINT RightArm
					{
						OFFSET 0.000000 -0.000002 12.888107
						CHANNELS 3 Xrotation Yrotation Zrotation
						JOINT RightArmRoll
						{
							OFFSET 0.000000 -0.000001 6.506165
							CHANNELS 3 Xrotation Yrotation Zrotation
							JOINT RightForeArm
							{
								OFFSET 0.000000 -0.000003 18.950104
								CHANNELS 3 Xrotation Yrotation Zrotation
								JOINT RightForeArmRoll
								{
									OFFSET 0.000000 -0.000001 7.300934
									CHANNELS 3 Xrotation Yrotation Zrotation
									JOINT RightHand
									{
										OFFSET 0.000000 -0.000002 14.651398
										CHANNELS 3 Xrotation Yrotation Zrotation
										End Site
										{
											OFFSET 0.000000 0.000000 0.100006
										}
									}
								}
							}
						}
					}
				}
				JOINT LeftShoulder
				{
					OFFSET 3.831360 0.533489 9.826309
					CHANNELS 3 Xrotation Yrotation Zrotation
					JOINT LeftArm
					{
						OFFSET 0.000000 -0.000002 12.888107
						CHANNELS 3 Xrotation Yrotation Zrotation
						JOINT LeftArmRoll
						{
							OFFSET 0.000000 -0.000001 6.506165
							CHANNELS 3 Xrotation Yrotation Zrotation
							JOINT LeftForeArm
							{
								OFFSET 0.000000 -0.000003 18.950104
								CHANNELS 3 Xrotation Yrotation Zrotation
								JOINT LeftForeArmRoll
								{
									OFFSET 0.000000 -0.000001 7.300934
									CHANNELS 3 Xrotation Yrotation Zrotation
									JOINT LeftHand
									{
										OFFSET 0.000000 -0.000002 14.651398
										CHANNELS 3 Xrotation Yrotation Zrotation
										End Site
										{
											OFFSET 0.000000 0.000000 0.100006
										}
									}
								}
							}
						}
					}
				}
			}
		}
	}
	JOINT RightUpLeg
	{
		OFFSET -6.068371 0.933477 -1.112778
		CHANNELS 3 Xrotation Yrotation Zrotation
		JOINT RightUpLegRoll
		{
			OFFSET 0.000000 -0.000003 17.179596
			CHANNELS 3 Xrotation Yrotation Zrotation
			JOINT RightLeg
			{
				OFFSET 0.000000 0.000003 -21.274300
				CHANNELS 3 Xrotation Yrotation Zrotation
				JOINT RightLegRoll
				{
					OFFSET 0.000000 -0.000003 21.343903
					CHANNELS 3 Xrotation Yrotation Zrotation
					JOINT RightFoot
					{
						OFFSET 0.000000 -0.000003 17.765198
						CHANNELS 3 Xrotation Yrotation Zrotation
						JOINT RightToeBase
						{
							OFFSET 0.000000 -0.000002 14.850807
							CHANNELS 3 Xrotation Yrotation Zrotation
							End Site
							{
								OFFSET 0.006294 0.829004 7.192123
							}
						}
					}
				}
			}
		}
	}
	JOINT LeftUpLeg
	{
		OFFSET 6.068371 0.933477 -1.112778
		CHANNELS 3 Xrotation Yrotation Zrotation
		JOINT LeftUpLegRoll
		{
			OFFSET 0.000000 -0.000003 17.179703
			CHANNELS 3 Xrotation Yrotation Zrotation
			JOINT LeftLeg
			{
				OFFSET 0.000000 -0.000003 21.274200
				CHANNELS 3 Xrotation Yrotation Zrotation
				JOINT LeftLegRoll
				{
					OFFSET 0.000000 -0.000004 21.541199
					CHANNELS 3 Xrotation Yrotation Zrotation
					JOINT LeftFoot
					{
						OFFSET 0.000000 -0.000003 17.567902
						CHANNELS 3 Xrotation Yrotation Zrotation
						JOINT LeftToeBase
						{
							OFFSET 0.000000 -0.000002 14.850800
							CHANNELS 3 Xrotation Yrotation Zrotation
							End Site
							{
								OFFSET -0.028210 0.829003 7.192139
							}
						}
					}
				}
			}
		}
	}
}
MOTION
Frames: 7
Frame Time: 0.041667
50.584602 -6.267378 86.565399 -3.119694 -0.529664 -1.799478 -1.742072 -1.496838 1.221319 0.561299 -3.011416 2.429498 2.206689 -2.982190 2.465351 7.457387 15.507656 -0.085746 8.729299 -8.663705 -0.593404 -10.700600 -50.964519 -12.167386 -49.746754 -111.699035 -27.122258 0.000003 -0.000008 -0.000007 0.119627 -14.844764 -0.198886 -0.000001 0.000013 -3.013542 -5.000227 -7.998782 0.000175 -31.252733 74.146799 35.737141 -83.927193 114.817584 55.336249 0.000004 -0.000001 0.000001 2.112451 13.765998 -0.937523 -0.000003 -0.000010 3.010091 -5.000230 7.998742 -0.000162 -13.788105 -178.892845 -1.904220 -179.999991 0.000005 -1.236997 155.438822 -3.385137 -1.262792 -0.000005 0.000001 0.668719 72.342447 7.401828 0.412535 25.456959 -7.355615 -0.000000 -11.160890 177.096874 0.451160 -0.000003 -0.000004 -0.847211 -24.500860 0.905413 1.212731 -0.000004 -0.000001 -0.452413 74.341104 -5.689368 -5.312759 25.456960 7.355623 -0.000004 
50.579403 -6.263467 86.564796 -3.115553 -0.529942 -1.797594 -1.741854 -1.496819 1.220996 0.559405 -3.011497 2.427639 2.204797 -2.982284 2.463496 7.462829 15.508860 -0.071836 8.713587 -8.668939 -0.578933 -10.693379 -50.961274 -12.157511 -49.733316 -111.706405 -27.102037 -0.000002 -0.000009 -0.000006 0.119630 -14.839870 -0.200102 0.000002 0.000013 -3.013541 -5.000225 -7.998781 0.000174 -31.279456 74.150569 35.765903 -83.951201 114.814592 55.365606 0.000001 0.000001 -0.000001 2.119809 13.770729 -0.937728 -0.000002 -0.000012 3.010094 -5.000227 7.998743 -0.000166 -13.791802 -178.893842 -1.906564 -179.999991 0.000005 -1.236997 155.437566 -3.383290 -1.263036 -0.000003 0.000001 0.668720 72.343895 7.401917 0.414053 25.456964 -7.355615 -0.000000 -11.166396 177.096929 0.452268 -0.000003 -0.000004 -0.847212 -24.499955 0.904536 1.212731 -0.000004 -0.000000 -0.452413 74.338686 -5.689185 -5.313555 25.456957 7.355625 -0.000005 
50.581104 -6.266689 86.565201 -3.111402 -0.530235 -1.795732 -1.741572 -1.496780 1.220664 0.557483 -3.011539 2.425728 2.202874 -2.982338 2.461588 7.468791 15.510053 -0.057705 8.696979 -8.674538 -0.564176 -10.686012 -50.958033 -12.147423 -49.720079 -111.713843 -27.081808 0.000000 -0.000008 -0.000007 0.119630 -14.834869 -0.201331 0.000002 0.000014 -3.013540 -5.000227 -7.998781 0.000173 -31.306684 74.154469 35.795225 -83.976281 114.811464 55.395928 0.000001 0.000000 -0.000000 2.127409 13.775458 -0.937933 -0.000003 -0.000010 3.010090 -5.000230 7.998743 -0.000165 -13.795499 -178.894826 -1.908887 -179.999991 0.000005 -1.236997 155.436418 -3.381431 -1.263267 -0.000004 0.000001 0.668714 72.345364 7.402068 0.415479 25.456959 -7.355614 0.000000 -11.172013 177.096000 0.453551 -0.000003 -0.000004 -0.847213 -24.498948 0.903681 1.212731 -0.000005 -0.000001 -0.452413 74.336282 -5.688972 -5.314348 25.456960 7.355624 -0.000005 
50.580803 -6.274058 86.564796 -3.107232 -0.530540 -1.793880 -1.741252 -1.496740 1.220334 0.555543 -3.011559 2.423787 2.200932 -2.982384 2.459658 7.475106 15.511226 -0.043420 8.679756 -8.680411 -0.549237 -10.678556 -50.954813 -12.137216 -49.708751 -111.720653 -27.063414 -0.000002 -0.000009 -0.000008 0.119630 -14.829669 -0.202577 0.000001 0.000013 -3.013542 -5.000231 -7.998780 0.000173 -31.334319 74.158424 35.824960 -84.001566 114.808308 55.426497 0.000001 -0.000001 -0.000001 2.135156 13.780192 -0.938119 -0.000003 -0.000009 3.010091 -5.000227 7.998742 -0.000165 -13.799196 -178.895809 -1.911211 -179.999991 0.000005 -1.236997 155.435448 -3.379590 -1.262496 -0.000005 0.000001 0.668704 72.346750 7.402253 0.416917 25.456959 -7.355613 -0.000001 -11.177622 177.096054 0.454623 -0.000004 -0.000004 -0.847215 -24.497841 0.902839 1.212730 -0.000004 -0.000000 -0.452413 74.333666 -5.688855 -5.315064 25.456962 7.355624 -0.000005 
50.576305 -6.271397 86.563301 -3.103061 -0.530852 -1.792028 -1.740925 -1.496690 1.220004 0.553594 -3.011570 2.421835 2.198989 -2.982406 2.457708 7.481634 15.512495 -0.029064 8.662176 -8.686431 -0.534185 -10.671038 -50.951599 -12.126912 -49.695545 -111.728084 -27.043010 -0.000000 -0.000008 -0.000007 0.119629 -14.824471 -0.203823 0.000000 0.000013 -3.013541 -5.000225 -7.998782 0.000173 -31.362026 74.162372 35.854798 -84.027323 114.805248 55.457571 0.000002 -0.000002 -0.000003 2.142991 13.784918 -0.938305 -0.000002 -0.000010 3.010091 -5.000229 7.998741 -0.000165 -13.802893 -178.896793 -1.913524 -179.999991 0.000005 -1.236997 155.434396 -3.377734 -1.262722 -0.000004 0.000001 0.668691 72.348226 7.402402 0.418442 25.456959 -7.355615 0.000000 -11.183239 177.095126 0.455882 -0.000003 -0.000004 -0.847216 -24.496733 0.902006 1.212731 -0.000004 -0.000000 -0.452413 74.331152 -5.688674 -5.315867 25.456962 7.355625 -0.000005 
50.582203 -6.270504 86.562904 -3.098894 -0.531166 -1.790186 -1.740574 -1.496640 1.219675 0.551641 -3.011571 2.419872 2.197037 -2.982430 2.455746 7.488210 15.513762 -0.014692 8.644499 -8.692499 -0.519115 -10.663479 -50.948270 -12.116571 -49.682332 -111.735536 -27.022602 0.000000 -0.000010 -0.000005 0.119631 -14.819268 -0.205071 0.000002 0.000013 -3.013539 -5.000229 -7.998782 0.000172 -31.389948 74.166388 35.884851 -84.053066 114.802106 55.488515 0.000001 0.000002 0.000001 2.150860 13.789652 -0.938495 0.000000 -0.000011 3.010087 -5.000230 7.998741 -0.000165 -13.806491 -178.897790 -1.915832 -179.999991 0.000005 -1.236997 155.433358 -3.375891 -1.262967 -0.000005 0.000001 0.668677 72.349701 7.402550 0.419967 25.456955 -7.355613 0.000000 -11.188845 177.095180 0.456942 -0.000003 -0.000005 -0.847218 -24.495527 0.901175 1.212729 -0.000004 -0.000001 -0.452413 74.328557 -5.688555 -5.316481 25.456964 7.355624 -0.000004 
50.576405 -6.266279 86.561302 -3.094710 -0.531476 -1.788334 -1.740244 -1.496600 1.219344 0.549693 -3.011582 2.417920 2.195084 -2.982465 2.453796 7.494683 15.514934 -0.000338 8.626999 -8.698503 -0.504107 -10.655981 -50.945053 -12.106299 -49.669122 -111.742988 -27.002185 -0.000000 -0.000008 -0.000007 0.119629 -14.814069 -0.206320 -0.000000 0.000013 -3.013539 -5.000227 -7.998782 0.000173 -31.417852 74.170411 35.914893 -84.078830 114.799047 55.519599 0.000004 -0.000002 -0.000003 2.158683 13.794378 -0.938686 -0.000004 -0.000010 3.010090 -5.000226 7.998743 -0.000165 -13.810186 -178.898774 -1.918145 -179.999991 0.000005 -1.236997 155.432306 -3.374047 -1.263199 -0.000004 0.000001 0.668664 72.351081 7.402737 0.421507 25.456955 -7.355617 0.000001 -11.194450 177.095235 0.458008 -0.000002 -0.000004 -0.847220 -24.494421 0.900340 1.212730 -0.000004 -0.000000 -0.452413 74.325948 -5.688409 -5.317294 25.456959 7.355624 -0.000005 
